<svg width="128" height="24" viewBox="0 0 128 24" fill="none" xmlns="http://www.w3.org/2000/svg">
<path d="M102.676 24C100.255 24 98.6524 22.7536 97.7978 19.7981L93.418 4.66437H102L105.418 17.1987L108.979 4.66437H116.67L120.374 17.5192L124.006 4.66437H127.317L122.795 19.7981C121.905 22.7536 120.445 24 118.024 24C115.567 24 114.035 22.7893 113.181 19.7981L110.332 10.1125L107.448 19.7981C106.593 22.718 105.098 24 102.676 24Z" fill="black"/>
<path d="M80.0849 23.7151C74.2451 23.7151 71.3252 21.2581 71.3252 17.3767C71.3252 13.4954 74.2807 11.0383 80.0849 11.0383H84.6072V9.32912C84.6072 7.65551 83.9663 7.01455 82.3639 7.01455H73.2125V4.66437H86.174C90.7319 4.66437 92.8328 6.72968 92.8328 10.9315V23.7151H80.0849ZM83.1829 21.5073H84.6072V13.1749H83.1829C80.4766 13.1749 79.1591 14.5992 79.1591 17.3411C79.1591 20.083 80.4766 21.5073 83.1829 21.5073Z" fill="black"/>
<path d="M52.4873 23.7151V21.3649H59.8227C61.3895 21.3649 61.9592 20.6171 61.9592 19.7269C61.9592 18.9435 61.4963 18.3738 60.3568 17.5191L56.7603 14.9553C54.5882 13.4241 53.4131 11.8573 53.4131 9.75643C53.4131 6.87212 55.6209 4.66437 59.8583 4.66437H75.5617V5.83946V7.01455H63.704C62.4933 7.01455 61.888 7.6199 61.888 8.4389C61.888 9.18669 62.3509 9.68521 63.2767 10.3262L67.0868 12.9612C69.6863 14.7061 70.8258 16.2728 70.8258 18.445C70.8258 21.5073 68.6536 23.7151 63.9533 23.7151H52.4873Z" fill="black"/>
<path d="M45.1568 23.7155C41.3467 23.7155 39.4238 21.8638 39.4238 18.3029V0H47.6138V4.66475H52.6346V7.01494H47.6138V19.6917C47.6138 20.7599 48.1836 21.3653 49.1806 21.3653H52.6346V23.7155H45.1568Z" fill="black"/>
<path d="M23.9316 10.7179C23.9316 6.69407 25.9613 4.66437 30.0207 4.66437H39.9911V5.83946V7.01455H33.8665C32.727 7.01455 32.1216 7.65551 32.1216 8.86621V23.7151H23.9316V10.7179Z" fill="black"/>
<path d="M8.75973 23.7151C2.91991 23.7151 0 21.2581 0 17.3767C0 13.4954 2.95552 11.0383 8.75973 11.0383H13.282V9.32912C13.282 7.65551 12.6411 7.01455 11.0387 7.01455H1.88726V4.66437H14.8488C19.4067 4.66437 21.5076 6.72968 21.5076 10.9315V23.7151H8.75973ZM11.8577 21.5073H13.282V13.1749H11.8577C9.15143 13.1749 7.8339 14.5992 7.8339 17.3411C7.8339 20.083 9.15143 21.5073 11.8577 21.5073Z" fill="black"/>
</svg>
